<svg width="20" height="20" viewBox="0 0 20 20" fill="none" xmlns="http://www.w3.org/2000/svg">
  <path d="M14.0178 5.00005C14.0178 4.44776 14.466 4.00005 15.0189 4.00005C15.5718 4.00005 16.02 4.44776 16.02 5.00005C16.02 5.55233 15.5718 6.00005 15.0189 6.00005C14.466 6.00005 14.0178 5.55233 14.0178 5.00005Z" fill="black" />
  <path fill-rule="evenodd" clip-rule="evenodd" d="M10.0133 5.25005C7.38707 5.25005 5.25806 7.37669 5.25806 10C5.25806 12.6234 7.38707 14.75 10.0133 14.75C12.6396 14.75 14.7686 12.6234 14.7686 10C14.7686 7.37669 12.6396 5.25005 10.0133 5.25005ZM6.75973 10C6.75973 8.20512 8.21641 6.75005 10.0133 6.75005C11.8102 6.75005 13.2669 8.20512 13.2669 10C13.2669 11.795 11.8102 13.25 10.0133 13.25C8.21641 13.25 6.75973 11.795 6.75973 10Z" fill="black" />
  <path fill-rule="evenodd" clip-rule="evenodd" d="M15.2774 0.833061C11.807 0.44562 8.21969 0.44562 4.74927 0.833061C2.73499 1.05794 1.10885 2.64295 0.872039 4.66548C0.457042 8.20978 0.457042 11.7903 0.872039 15.3346C1.10885 17.3571 2.73499 18.9422 4.74927 19.167C8.21969 19.5545 11.807 19.5545 15.2774 19.167C17.2917 18.9422 18.9178 17.3571 19.1546 15.3346C19.5696 11.7903 19.5696 8.20978 19.1546 4.66548C18.9178 2.64295 17.2917 1.05794 15.2774 0.833061ZM4.91607 2.32378C8.27563 1.94871 11.751 1.94871 15.1106 2.32378C16.4422 2.47244 17.5089 3.52205 17.6631 4.83973C18.0646 8.26825 18.0646 11.7318 17.6631 15.1604C17.5089 16.478 16.4422 17.5277 15.1106 17.6763C11.751 18.0514 8.27563 18.0514 4.91607 17.6763C3.58449 17.5277 2.51782 16.478 2.36353 15.1604C1.96209 11.7318 1.96209 8.26825 2.36353 4.83973C2.51782 3.52205 3.58449 2.47244 4.91607 2.32378Z" fill="black" />
</svg>