<svg width="14" height="13" viewBox="0 0 14 13" fill="none" xmlns="http://www.w3.org/2000/svg">
<path d="M11.5108 4.39061C11.3656 4.34382 11.2151 4.29955 11.0601 4.25769C11.0856 4.1604 11.109 4.06438 11.1298 3.96998C11.4709 2.42002 11.2479 1.17135 10.4862 0.76024C9.75583 0.366037 8.5614 0.777056 7.35508 1.75966C7.23908 1.85415 7.12276 1.95418 7.00648 2.05903C6.929 1.98966 6.85165 1.92263 6.7745 1.85851C5.51024 0.807844 4.24302 0.36508 3.4821 0.777383C2.75244 1.17273 2.53636 2.34659 2.84345 3.81551C2.8731 3.95739 2.90777 4.10228 2.94697 4.24959C2.76762 4.29725 2.59448 4.34805 2.42881 4.40209C0.946604 4.88576 0 5.6438 0 6.43008C0 7.24216 1.01618 8.05669 2.56001 8.55058C2.68185 8.58956 2.80826 8.62641 2.93854 8.6614C2.89626 8.82073 2.85947 8.97686 2.8286 9.12914C2.53579 10.5726 2.76445 11.7187 3.49216 12.1115C4.24382 12.5172 5.50531 12.1002 6.73368 11.0952C6.83077 11.0158 6.92821 10.9315 7.02582 10.8432C7.15233 10.9573 7.27865 11.0652 7.4043 11.1664C8.59412 12.1247 9.76926 12.5117 10.4963 12.1178C11.2472 11.7109 11.4912 10.4797 11.1744 8.98171C11.1502 8.8673 11.1221 8.75043 11.0904 8.63147C11.179 8.60696 11.266 8.58165 11.3508 8.55534C12.9558 8.05763 14 7.25301 14 6.43008C14 5.64095 13.0229 4.87781 11.5108 4.39061ZM11.1627 8.02399C11.0862 8.04771 11.0076 8.07064 10.9276 8.09287C10.7504 7.56786 10.5113 7.0096 10.2186 6.43281C10.4979 5.86977 10.7278 5.31864 10.9 4.79704C11.0432 4.83583 11.1822 4.87674 11.3161 4.91991C12.6117 5.33734 13.4019 5.95453 13.4019 6.43008C13.4019 6.93664 12.5485 7.59422 11.1627 8.02399ZM10.5877 9.09042C10.7278 9.75281 10.7478 10.3517 10.655 10.8198C10.5716 11.2405 10.4039 11.521 10.1966 11.6333C9.75541 11.8724 8.81189 11.5617 7.79434 10.7421C7.67769 10.6481 7.5602 10.5478 7.44233 10.4416C7.83681 10.0378 8.23106 9.56838 8.61585 9.04702C9.29265 8.99081 9.93207 8.89891 10.5119 8.77345C10.5405 8.88128 10.5659 8.98703 10.5877 9.09042ZM4.77292 11.592C4.34185 11.7345 3.99853 11.7386 3.791 11.6266C3.3494 11.3882 3.16581 10.468 3.41623 9.23354C3.44491 9.09217 3.47905 8.94696 3.5184 8.79852C4.09191 8.91722 4.72664 9.00263 5.40506 9.05411C5.79244 9.56428 6.19808 10.0332 6.60687 10.4438C6.51755 10.5245 6.42859 10.6013 6.34012 10.6737C5.79695 11.1181 5.25262 11.4334 4.77292 11.592ZM2.75344 8.02089C2.07079 7.80251 1.50703 7.51867 1.12059 7.20895C0.773361 6.93062 0.598051 6.6543 0.598051 6.43008C0.598051 5.95294 1.35808 5.34434 2.62568 4.93068C2.77948 4.88049 2.94049 4.83319 3.10758 4.78876C3.28276 5.32214 3.51257 5.8798 3.7899 6.44371C3.50898 7.01599 3.27591 7.58254 3.099 8.12216C2.97989 8.09012 2.86448 8.05639 2.75344 8.02089ZM3.43039 3.708C3.16728 2.44947 3.34202 1.50008 3.78173 1.26185C4.2501 1.00806 5.28579 1.36991 6.37738 2.27711C6.44715 2.33509 6.5172 2.39578 6.58745 2.45857C6.18069 2.86738 5.77875 3.33279 5.39482 3.83995C4.73638 3.89707 4.10611 3.98883 3.52663 4.1117C3.49019 3.97453 3.45792 3.83976 3.43039 3.708ZM9.46935 5.1037C9.33082 4.87974 9.18861 4.66108 9.04362 4.44839C9.49031 4.50124 9.91828 4.5714 10.3202 4.65725C10.1995 5.0192 10.0491 5.39764 9.87211 5.78559C9.74512 5.55993 9.6108 5.3324 9.46935 5.1037ZM7.00668 2.85863C7.28254 3.13836 7.5588 3.45067 7.83053 3.78952C7.55671 3.77742 7.2795 3.77112 7 3.77112C6.72314 3.77112 6.44798 3.77728 6.17585 3.78917C6.44785 3.45347 6.7265 3.14158 7.00668 2.85863ZM4.52823 5.10758C4.38985 5.33217 4.25802 5.55846 4.13303 5.78517C3.95886 5.39857 3.80987 5.01841 3.68816 4.65133C4.0876 4.56767 4.51355 4.49926 4.9574 4.44741C4.81037 4.66206 4.66698 4.88233 4.52823 5.10753V5.10758ZM4.97018 8.45269C4.51161 8.40481 4.07925 8.33992 3.67991 8.25856C3.80356 7.88493 3.95585 7.49666 4.1337 7.10173C4.25902 7.32828 4.39137 7.55466 4.5306 7.77974H4.53062C4.67244 8.00904 4.81937 8.23365 4.97018 8.45269ZM7.02323 10.041C6.73976 9.75475 6.45702 9.4381 6.18089 9.09749C6.44895 9.10733 6.72224 9.11237 7 9.11237C7.28536 9.11237 7.56745 9.10635 7.84511 9.09479C7.57248 9.44152 7.29722 9.75866 7.02323 10.041ZM9.87781 7.0816C10.0649 7.48079 10.2227 7.86704 10.3479 8.23431C9.94201 8.32098 9.50374 8.39079 9.04198 8.44266C9.18731 8.2271 9.33077 8.00468 9.47175 7.77589C9.61436 7.54442 9.74978 7.3126 9.87781 7.0816ZM8.95369 7.49623C8.73484 7.85139 8.51017 8.19043 8.28207 8.51047C7.86664 8.53827 7.43744 8.55259 7 8.55259C6.56433 8.55259 6.14054 8.53993 5.73245 8.51513C5.49517 8.1909 5.26561 7.85086 5.04816 7.49929H5.04821C4.83133 7.14868 4.63172 6.79511 4.45085 6.44352C4.63167 6.09111 4.83076 5.73714 5.04639 5.38716L5.04634 5.38723C5.26254 5.03632 5.49008 4.69793 5.72518 4.37573C6.14154 4.34627 6.56849 4.3309 6.99997 4.3309H7C7.43343 4.3309 7.86093 4.34639 8.27717 4.3761C8.50867 4.69595 8.73467 5.03324 8.95172 5.3842C9.17124 5.7391 9.37289 6.09072 9.55525 6.43557C9.37344 6.78634 9.17223 7.1415 8.95369 7.49623ZM10.1874 1.2452C10.6563 1.49824 10.8386 2.51877 10.544 3.857C10.5252 3.94239 10.5041 4.02937 10.4811 4.11751C9.90027 3.99207 9.26955 3.89873 8.6092 3.84074C8.22451 3.32801 7.82587 2.86187 7.42573 2.45831C7.53331 2.36145 7.64074 2.26909 7.74772 2.18192C8.78129 1.34003 9.74731 1.00764 10.1874 1.2452ZM7 5.25998C7.69043 5.25998 8.25015 5.78384 8.25015 6.43008C8.25015 7.07631 7.69043 7.60019 7 7.60019C6.30957 7.60019 5.74985 7.07631 5.74985 6.43008C5.74985 5.78384 6.30957 5.25998 7 5.25998Z" fill="#00D8FF"/>
</svg>
